<svg width="22" height="23" viewBox="0 0 22 23" fill="none" xmlns="http://www.w3.org/2000/svg">
<path d="M-37.9 17.628C-38 17.528 -38 17.528 -38 17.428C-37.9 17.428 -37.9 17.528 -37.9 17.628ZM18 1.82803H16.7V1.52803C16.7 1.12803 16.4 0.728027 15.9 0.728027C15.5 0.728027 15.1 1.02803 15.1 1.52803V1.82803H7.7V1.52803C7.7 1.12803 7.4 0.728027 6.9 0.728027C6.5 0.728027 6.1 1.02803 6.1 1.52803V1.82803H4.8C3.4 1.82803 2.3 2.92803 2.3 4.32803V17.428C2.3 18.828 3.4 19.928 4.8 19.928H7.7C8.1 19.928 8.5 19.628 8.5 19.128C8.5 18.728 8.2 18.328 7.7 18.328H4.8C4.2 18.328 3.8 17.828 3.8 17.328V7.52803C3.8 7.22803 4.2 6.82803 4.8 6.82803H18C18.6 6.82803 19 7.22803 19 7.52803V9.32803C19 9.72803 19.3 10.128 19.8 10.128C20.2 10.128 20.6 9.82803 20.6 9.32803V4.32803C20.5 2.92803 19.4 1.82803 18 1.82803ZM19 5.52803C18.7 5.42803 18.3 5.32803 18 5.32803H4.8C4.4 5.32803 4.1 5.42803 3.8 5.52803V4.32803C3.8 3.72803 4.3 3.32803 4.8 3.32803H6.1V3.82803C6.1 4.22803 6.4 4.62803 6.9 4.62803C7.3 4.62803 7.7 4.32803 7.7 3.82803V3.32803H15.2V3.82803C15.2 4.22803 15.5 4.62803 16 4.62803C16.4 4.62803 16.8 4.32803 16.8 3.82803V3.32803H18C18.6 3.32803 19 3.82803 19 4.32803V5.52803Z" fill="#1D9BF0"/>
<path d="M15.5 10.028C12.1 10.028 9.30005 12.828 9.30005 16.228C9.30005 19.628 12.1 22.428 15.5 22.428C18.9 22.428 21.7 19.628 21.7 16.228C21.7 12.828 18.9 10.028 15.5 10.028ZM15.5 21.028C12.9 21.028 10.8 18.928 10.8 16.328C10.8 13.728 12.9 11.628 15.5 11.628C18.1 11.628 20.2 13.728 20.2 16.328C20.2 18.828 18.1 21.028 15.5 21.028Z" fill="#1D9BF0"/>
<path d="M18.9 18.328C18.8 18.528 18.5 18.728 18.3 18.728C18.2 18.728 18 18.728 17.9 18.628L14.8 16.628V13.628C14.8 13.228 15.1 12.828 15.6 12.828C16 12.828 16.4 13.128 16.4 13.628V15.828L18.8 17.328C19 17.528 19.1 17.928 18.9 18.328Z" fill="#1D9BF0"/>
</svg>
