<svg width="22" height="23" viewBox="0 0 22 23" fill="none" xmlns="http://www.w3.org/2000/svg">
<path d="M10.75 22.1281C4.822 22.1281 0 17.3061 0 11.3781C0 5.45005 4.822 0.628052 10.75 0.628052C16.678 0.628052 21.5 5.45005 21.5 11.3781C21.5 17.3061 16.678 22.1281 10.75 22.1281ZM10.75 2.12805C5.65 2.12805 1.5 6.27805 1.5 11.3781C1.5 16.4781 5.65 20.6281 10.75 20.6281C15.85 20.6281 20 16.4781 20 11.3781C20 6.27805 15.85 2.12805 10.75 2.12805Z" fill="#1D9BF0"/>
<path d="M10.7502 16.4931C8.85824 16.4931 7.11725 15.5431 6.09425 13.9491C5.87025 13.6011 5.97125 13.1391 6.32025 12.9141C6.66825 12.6881 7.13225 12.7901 7.35625 13.1401C8.10325 14.3021 9.37224 14.9951 10.7512 14.9951C12.1302 14.9951 13.3992 14.3021 14.1472 13.1411C14.3712 12.7911 14.8352 12.6911 15.1832 12.9161C15.5332 13.1401 15.6332 13.6041 15.4092 13.9521C14.3842 15.5461 12.6432 16.4971 10.7512 16.4971L10.7502 16.4931Z" fill="#1D9BF0"/>
<path d="M13.4878 10.314C14.3041 10.314 14.9658 9.65233 14.9658 8.83603C14.9658 8.01973 14.3041 7.35803 13.4878 7.35803C12.6715 7.35803 12.0098 8.01973 12.0098 8.83603C12.0098 9.65233 12.6715 10.314 13.4878 10.314Z" fill="#1D9BF0"/>
<path d="M8.01218 10.314C8.82848 10.314 9.49018 9.65233 9.49018 8.83603C9.49018 8.01973 8.82848 7.35803 8.01218 7.35803C7.1959 7.35803 6.53418 8.01973 6.53418 8.83603C6.53418 9.65233 7.1959 10.314 8.01218 10.314Z" fill="#1D9BF0"/>
</svg>
