<svg width="20" height="21" viewBox="0 0 20 21" fill="none" xmlns="http://www.w3.org/2000/svg">
<path d="M17.75 0.628052H2.25C1.01 0.628052 0 1.63805 0 2.87805V18.3781C0 19.6181 1.01 20.6281 2.25 20.6281H17.75C18.99 20.6281 20 19.6181 20 18.3781V2.87805C20 1.63805 18.99 0.628052 17.75 0.628052ZM2.25 2.12805H17.75C18.163 2.12805 18.5 2.46505 18.5 2.87805V12.5541L14.642 8.69605C14.502 8.55605 14.312 8.47605 14.112 8.47605H14.109C13.909 8.47605 13.716 8.55605 13.577 8.70005L9.25999 13.0841L7.44701 11.2781C7.30701 11.1381 7.11701 11.0581 6.91701 11.0581C6.72401 11.0281 6.522 11.1381 6.382 11.2851L1.5 16.2701V2.87805C1.5 2.46505 1.837 2.12805 2.25 2.12805ZM1.506 18.4081L6.924 12.8741L13.206 19.1281H2.25C1.848 19.1281 1.523 18.8061 1.506 18.4081ZM17.75 19.1281H15.33L10.323 14.1411L14.115 10.291L18.5 14.6751V18.3781C18.5 18.7911 18.163 19.1281 17.75 19.1281Z" fill="#1D9BF0"/>
<path d="M6.86816 8.47902C7.72016 8.47902 8.41017 7.78872 8.41017 6.93702C8.41017 6.08542 7.72016 5.39502 6.86816 5.39502C6.01616 5.39502 5.32617 6.08542 5.32617 6.93702C5.32617 7.78872 6.01616 8.47902 6.86816 8.47902Z" fill="#1D9BF0"/>
</svg>
